<?xml version="1.0" encoding="UTF-8" standalone="no"?>
<!-- Generator: Adobe Illustrator 16.0.0, SVG Export Plug-In . SVG Version: 6.00 Build 0)  -->

<svg
   xmlns:dc="http://purl.org/dc/elements/1.1/"
   xmlns:cc="http://creativecommons.org/ns#"
   xmlns:rdf="http://www.w3.org/1999/02/22-rdf-syntax-ns#"
   xmlns:svg="http://www.w3.org/2000/svg"
   xmlns="http://www.w3.org/2000/svg"
   xmlns:xlink="http://www.w3.org/1999/xlink"
   xmlns:sodipodi="http://sodipodi.sourceforge.net/DTD/sodipodi-0.dtd"
   xmlns:inkscape="http://www.inkscape.org/namespaces/inkscape"
   version="1.1"
   id="money"
   x="0px"
   y="0px"
   width="291px"
   height="256px"
   viewBox="0 0 291 256"
   enable-background="new 0 0 291 256"
   xml:space="preserve"
   inkscape:version="0.91 r13725"
   sodipodi:docname="sav-ur-money.svg"><metadata
     id="metadata140"><rdf:RDF><cc:Work
         rdf:about=""><dc:format>image/svg+xml</dc:format><dc:type
           rdf:resource="http://purl.org/dc/dcmitype/StillImage" /></cc:Work></rdf:RDF></metadata><defs
     id="defs138" /><sodipodi:namedview
     pagecolor="#ffffff"
     bordercolor="#666666"
     borderopacity="1"
     objecttolerance="10"
     gridtolerance="10"
     guidetolerance="10"
     inkscape:pageopacity="0"
     inkscape:pageshadow="2"
     inkscape:window-width="1440"
     inkscape:window-height="851"
     id="namedview136"
     showgrid="false"
     inkscape:zoom="2.7695312"
     inkscape:cx="145.5"
     inkscape:cy="128"
     inkscape:window-x="0"
     inkscape:window-y="1"
     inkscape:window-maximized="1"
     inkscape:current-layer="money" /><rect
     style="fill:#89dbba"
     id="rect4"
     height="150"
     width="271.875"
     y="12.125"
     x="9.375" /><path
     style="fill:#b1f1a8"
     inkscape:connector-curvature="0"
     id="path6"
     d="m 262.5,124.625 0,-75 c -10.354,0 -18.75,-8.396 -18.75,-18.75 l -196.875,0 c 0,10.354 -8.396,18.75 -18.75,18.75 l 0,75 c 10.354,0 18.75,8.396 18.75,18.75 l 196.875,0 c 0,-10.354 8.396,-18.75 18.75,-18.75" /><g
     style="opacity:0.2"
     id="g8"
     enable-background="new    "><g
       id="g10"><defs
         id="defs12"><rect
           height="75"
           width="271.875"
           y="87.125"
           x="9.375"
           id="SVGID_1_" /></defs><clipPath
         id="SVGID_2_"><use
           height="100%"
           width="100%"
           y="0"
           x="0"
           style="overflow:visible"
           id="use16"
           overflow="visible"
           xlink:href="#SVGID_1_" /></clipPath><rect
         style="fill:#153e6b"
         id="rect18"
         height="75"
         width="271.875"
         clip-path="url(#SVGID_2_)"
         y="87.125"
         x="9.375" /></g></g><path
     style="fill:#89dbba"
     inkscape:connector-curvature="0"
     id="path20"
     d="m 145.313,30.875 c 23.3,0 42.188,25.186 42.188,56.25 0,31.064 -18.888,56.25 -42.188,56.25 -23.303,0 -42.188,-25.186 -42.188,-56.25 0,-31.064 18.885,-56.25 42.188,-56.25" /><path
     style="fill:#b1f1a8"
     inkscape:connector-curvature="0"
     id="path22"
     d="m 175.937,125.735 c -5.067,-4.791 -11.307,-8.158 -18.095,-9.755 -1.195,-0.197 -2.061,-1.252 -2.015,-2.465 0.056,-1.328 0.056,-2.728 0.051,-4.191 0,-3.355 4.037,-7.402 4.257,-12.112 1.245,-2.396 1.964,-5.021 2.115,-7.711 0.092,-1.069 -0.252,-2.138 -0.957,-2.943 0.33,-1.758 0.609,-3.614 0.957,-5.528 2.068,-6.53 -1.529,-13.504 -8.048,-15.614 -2.436,-0.863 -12.536,-2.614 -16.299,-6.262 -1.359,-1.316 -0.433,6.118 -1.666,6.67 -6.29,2.124 -9.764,8.846 -7.86,15.207 0.341,1.914 0.623,3.77 0.957,5.528 -0.707,0.806 -1.055,1.874 -0.957,2.943 0.151,2.689 0.868,5.314 2.11,7.711 0.224,4.71 4.259,8.517 4.259,12.112 -0.004,1.463 -0.004,2.863 0.053,4.191 0.042,1.213 -0.821,2.268 -2.021,2.465 -6.782,1.598 -13.025,4.964 -18.088,9.755 6.692,10.544 18.141,17.141 30.622,17.64 12.484,-0.5 23.928,-7.097 30.625,-17.641" /><path
     style="fill:#014463;fill-opacity:1"
     inkscape:connector-curvature="0"
     id="path24"
     d="m 281.25,166.813 -46.875,0 c -2.586,0 -4.688,-2.097 -4.688,-4.688 0,-2.591 2.102,-4.688 4.688,-4.688 l 42.188,0 0,-140.624 -262.5,0 0,140.625 52.05,0 c 2.586,0 4.688,2.097 4.688,4.688 0,2.591 -2.101,4.688 -4.688,4.688 l -56.738,0 c -2.586,0 -4.688,-2.097 -4.688,-4.683 l 0,-0.005 0,-150 c 0,-2.586 2.094,-4.688 4.688,-4.688 l 271.875,0 c 2.586,0 4.688,2.094 4.688,4.688 l 0,150 c 0,2.585 -2.097,4.687 -4.688,4.687 z" /><path
     style="fill:#014463;fill-opacity:1"
     inkscape:connector-curvature="0"
     id="path26"
     d="m 243.75,148.063 -9.375,0 c -2.586,0 -4.688,-2.097 -4.688,-4.688 0,-2.591 2.102,-4.688 4.688,-4.688 l 5.159,0 c 1.896,-9.196 9.082,-16.383 18.278,-18.276 l 0,-66.572 c -9.196,-1.893 -16.383,-9.08 -18.278,-18.276 l -188.445,0 c -1.893,9.196 -9.08,16.383 -18.276,18.276 l 0,66.572 c 9.196,1.893 16.383,9.08 18.276,18.276 l 28.631,0 c 2.588,0 4.688,2.097 4.688,4.688 0,2.591 -2.099,4.688 -4.688,4.688 l -32.845,0 c -2.586,0 -4.688,-2.097 -4.688,-4.683 l 0,-0.005 c -0.009,-7.764 -6.301,-14.053 -14.063,-14.063 -2.586,0 -4.688,-2.094 -4.688,-4.688 l 0,-75 c 0,-2.586 2.094,-4.688 4.688,-4.688 7.761,-0.009 14.053,-6.301 14.063,-14.063 0,-2.586 2.094,-4.688 4.688,-4.688 l 196.875,0 c 2.586,0 4.688,2.094 4.688,4.688 0.009,7.761 6.299,14.053 14.063,14.063 2.586,0 4.688,2.094 4.688,4.688 l 0,75 c 0,2.586 -2.097,4.688 -4.688,4.688 -7.764,0.009 -14.054,6.299 -14.063,14.063 0,2.586 -2.097,4.688 -4.688,4.688 z" /><path
     style="fill:#014463;fill-opacity:1"
     inkscape:connector-curvature="0"
     id="path28"
     d="m 122.246,138.88 c -1.136,0 -2.232,-0.412 -3.081,-1.158 -13.751,-13.177 -21.279,-31.556 -20.728,-50.597 0,-33.6 21.03,-60.938 46.875,-60.938 25.846,0 46.875,27.338 46.875,60.938 0,6.759 -0.884,13.49 -2.628,20.021 -0.663,2.504 -3.227,3.994 -5.73,3.332 -2.505,-0.661 -3.992,-3.229 -3.328,-5.729 0,-0.009 0,-0.014 0.005,-0.023 1.528,-5.743 2.302,-11.657 2.307,-17.601 0,-28.43 -16.822,-51.563 -37.5,-51.563 -20.677,0 -37.5,23.133 -37.5,51.563 -0.567,16.331 5.795,32.142 17.514,43.533 1.95,1.701 2.151,4.665 0.449,6.615 -0.891,1.021 -2.175,1.602 -3.53,1.607" /><path
     style="fill:#89dbba"
     inkscape:connector-curvature="0"
     id="path30"
     d="m 225,77.75 c 5.173,0 9.375,4.2 9.375,9.375 0,5.175 -4.202,9.375 -9.375,9.375 -5.173,0 -9.375,-4.2 -9.375,-9.375 0,-5.175 4.202,-9.375 9.375,-9.375" /><path
     style="fill:#014463;fill-opacity:1"
     inkscape:connector-curvature="0"
     id="path32"
     d="m 225,101.188 c -7.769,0 -14.063,-6.294 -14.063,-14.063 0,-7.769 6.294,-14.062 14.063,-14.062 7.769,0 14.063,6.294 14.063,14.063 -0.009,7.76 -6.299,14.052 -14.063,14.062 m 0,-18.75 c -2.586,0 -4.688,2.101 -4.688,4.688 0,2.587 2.102,4.688 4.688,4.688 2.586,0 4.688,-2.101 4.688,-4.688 0,-2.587 -2.102,-4.688 -4.688,-4.688" /><path
     style="fill:#e0a13b"
     inkscape:connector-curvature="0"
     id="path34"
     d="m 150,213.688 0,18.75 c 0,7.769 14.689,14.063 32.813,14.063 18.124,0 32.813,-6.294 32.813,-14.063 l 0,-18.75" /><path
     style="fill:#fff27d"
     inkscape:connector-curvature="0"
     id="path36"
     d="m 150,194.938 0,18.75 c 0,7.769 14.689,14.063 32.813,14.063 18.124,0 32.813,-6.294 32.813,-14.063 l 0,-18.75" /><g
     style="opacity:0.5"
     id="g38"
     enable-background="new    "><g
       id="g40"><defs
         id="defs42"><rect
           height="32.424"
           width="33.596001"
           y="194.938"
           x="150"
           id="SVGID_3_" /></defs><clipPath
         id="SVGID_4_"><use
           height="100%"
           width="100%"
           y="0"
           x="0"
           style="overflow:visible"
           id="use46"
           overflow="visible"
           xlink:href="#SVGID_3_" /></clipPath><path
         style="fill:#ffffff"
         inkscape:connector-curvature="0"
         id="path48"
         d="M 182.813,209 C 164.689,209 150,202.706 150,194.938 l 0,18.75 c 0,6.646 10.775,12.204 25.246,13.674 l 8.35,0 0,-18.38 c -0.262,0.004 -0.523,0.018 -0.783,0.018"
         clip-path="url(#SVGID_4_)" /></g></g><path
     style="fill:#fff27d"
     inkscape:connector-curvature="0"
     id="path50"
     d="M 182.813,227.75 C 164.69,227.75 150,221.456 150,213.687 l 0,18.75 c 0,6.646 10.775,12.204 25.246,13.674 l 8.35,0 0,-18.38 c -0.262,0.005 -0.523,0.019 -0.783,0.019" /><path
     style="fill:#e0a13b"
     inkscape:connector-curvature="0"
     id="path52"
     d="m 150,176.188 0,18.75 c 0,7.769 14.689,14.063 32.813,14.063 18.124,0 32.813,-6.294 32.813,-14.063 l 0,-18.75" /><path
     style="fill:#fff27d"
     inkscape:connector-curvature="0"
     id="path54"
     d="m 150,157.438 0,18.75 c 0,7.769 14.689,14.063 32.813,14.063 18.124,0 32.813,-6.294 32.813,-14.063 l 0,-18.75" /><path
     style="fill:#e0a13b"
     inkscape:connector-curvature="0"
     id="path56"
     d="m 84.375,204.313 0,18.75 c 0,7.769 14.689,14.063 32.813,14.063 18.124,0 32.812,-6.295 32.812,-14.063 l 0,-18.75" /><path
     style="fill:#fff27d"
     inkscape:connector-curvature="0"
     id="path58"
     d="m 117.188,218.375 c -18.123,0 -32.813,-6.294 -32.813,-14.063 l 0,18.75 c 0,6.646 10.776,12.204 25.248,13.674 l 8.347,0 0,-18.38 c -0.263,0.005 -0.519,0.019 -0.782,0.019" /><path
     style="fill:#fff27d"
     inkscape:connector-curvature="0"
     id="path60"
     d="m 84.375,185.563 0,18.75 c 0,7.769 14.689,14.063 32.813,14.063 18.124,0 32.812,-6.295 32.812,-14.063 l 0,-18.75" /><path
     style="fill:#e2a440"
     inkscape:connector-curvature="0"
     id="path62"
     d="m 150,138.688 0,18.75 c 0,7.769 14.689,14.063 32.813,14.063 18.124,0 32.813,-6.294 32.813,-14.063 l 0,-18.75" /><path
     style="fill:#fff27d"
     inkscape:connector-curvature="0"
     id="path64"
     d="M 182.813,190.25 C 164.69,190.25 150,183.956 150,176.187 l 0,18.75 c 0,6.646 10.775,12.204 25.246,13.674 l 8.35,0 0,-18.38 c -0.262,0.005 -0.523,0.019 -0.783,0.019" /><path
     style="fill:#fff27d"
     inkscape:connector-curvature="0"
     id="path66"
     d="M 182.813,152.75 C 164.69,152.75 150,146.456 150,138.687 l 0,18.75 c 0,6.646 10.775,12.204 25.246,13.674 l 8.35,0 0,-18.38 c -0.262,0.005 -0.523,0.019 -0.783,0.019" /><g
     style="opacity:0.5"
     id="g68"
     enable-background="new    "><g
       id="g70"><defs
         id="defs72"><rect
           height="32.424"
           width="33.596001"
           y="157.438"
           x="150"
           id="SVGID_5_" /></defs><clipPath
         id="SVGID_6_"><use
           height="100%"
           width="100%"
           y="0"
           x="0"
           style="overflow:visible"
           id="use76"
           overflow="visible"
           xlink:href="#SVGID_5_" /></clipPath><path
         style="fill:#ffffff"
         inkscape:connector-curvature="0"
         id="path78"
         d="M 182.813,171.5 C 164.69,171.5 150,165.206 150,157.437 l 0,18.75 c 0,6.646 10.775,12.204 25.246,13.674 l 8.35,0 0,-18.38 c -0.262,0.005 -0.523,0.019 -0.783,0.019"
         clip-path="url(#SVGID_6_)" /></g></g><path
     style="fill:#e0a13b"
     inkscape:connector-curvature="0"
     id="path80"
     d="m 84.375,166.813 0,18.75 c 0,7.769 14.689,14.063 32.813,14.063 18.124,0 32.812,-6.295 32.812,-14.063 l 0,-18.75" /><path
     style="fill:#fff27d"
     inkscape:connector-curvature="0"
     id="path82"
     d="m 117.188,180.875 c -18.123,0 -32.813,-6.294 -32.813,-14.063 l 0,18.75 c 0,6.646 10.776,12.204 25.248,13.674 l 8.347,0 0,-18.38 c -0.263,0.005 -0.519,0.019 -0.782,0.019" /><g
     style="opacity:0.5"
     id="g84"
     enable-background="new    "><g
       id="g86"><defs
         id="defs88"><rect
           height="32.424"
           width="33.592999"
           y="185.563"
           x="84.375"
           id="SVGID_7_" /></defs><clipPath
         id="SVGID_8_"><use
           height="100%"
           width="100%"
           y="0"
           x="0"
           style="overflow:visible"
           id="use92"
           overflow="visible"
           xlink:href="#SVGID_7_" /></clipPath><path
         style="fill:#ffffff"
         inkscape:connector-curvature="0"
         id="path94"
         d="m 117.188,199.625 c -18.123,0 -32.813,-6.294 -32.813,-14.063 l 0,18.75 c 0,6.646 10.776,12.204 25.248,13.674 l 8.347,0 0,-18.38 c -0.263,0.005 -0.519,0.019 -0.782,0.019"
         clip-path="url(#SVGID_8_)" /></g></g><path
     style="fill:#014463;fill-opacity:1"
     inkscape:connector-curvature="0"
     id="path96"
     d="m 117.188,241.813 c -18.638,0 -37.5,-6.44 -37.5,-18.75 l 0,-18.75 c 0,-2.591 2.101,-4.688 4.688,-4.688 2.587,0 4.688,2.097 4.688,4.688 l 0,18.75 c 0,3.305 10.677,9.375 28.125,9.375 17.448,0 28.125,-6.07 28.125,-9.375 l 0,-18.75 c 0,-2.591 2.101,-4.688 4.688,-4.688 2.586,0 4.688,2.097 4.688,4.688 l 0,18.75 c -0.002,12.309 -18.865,18.75 -37.502,18.75" /><path
     style="fill:#014463;fill-opacity:1"
     inkscape:connector-curvature="0"
     id="path98"
     d="m 117.188,223.063 c -18.638,0 -37.5,-6.44 -37.5,-18.75 l 0,-18.75 c 0,-2.591 2.101,-4.688 4.688,-4.688 2.587,0 4.688,2.097 4.688,4.688 l 0,18.75 c 0,3.305 10.677,9.375 28.125,9.375 17.448,0 28.125,-6.07 28.125,-9.375 l 0,-18.75 c 0,-2.591 2.101,-4.688 4.688,-4.688 2.586,0 4.688,2.097 4.688,4.688 l 0,18.75 c -0.002,12.309 -18.865,18.75 -37.502,18.75" /><path
     style="fill:#014463;fill-opacity:1"
     inkscape:connector-curvature="0"
     id="path100"
     d="m 117.188,204.313 c -18.638,0 -37.5,-6.44 -37.5,-18.75 l 0,-18.75 c 0,-2.591 2.101,-4.688 4.688,-4.688 2.587,0 4.688,2.097 4.688,4.688 l 0,18.75 c 0,3.305 10.677,9.375 28.125,9.375 17.448,0 28.125,-6.07 28.125,-9.375 l 0,-18.75 c 0,-2.591 2.101,-4.688 4.688,-4.688 2.586,0 4.688,2.097 4.688,4.688 l 0,18.75 c -0.002,12.309 -18.865,18.75 -37.502,18.75" /><path
     style="fill:#fff27d"
     inkscape:connector-curvature="0"
     id="path102"
     d="m 117.188,152.75 c 18.123,0 32.813,6.294 32.813,14.063 0,7.769 -14.689,14.063 -32.813,14.063 -18.124,0 -32.813,-6.294 -32.813,-14.063 0,-7.769 14.689,-14.063 32.813,-14.063" /><path
     style="fill:#014463;fill-opacity:1"
     inkscape:connector-curvature="0"
     id="path104"
     d="m 117.188,185.563 c -18.638,0 -37.5,-6.44 -37.5,-18.75 0,-12.31 18.862,-18.75 37.5,-18.75 18.638,0 37.5,6.44 37.5,18.75 0,12.31 -18.863,18.75 -37.5,18.75 m 0,-28.125 c -17.448,0 -28.125,6.07 -28.125,9.375 0,3.305 10.677,9.375 28.125,9.375 17.448,0 28.125,-6.07 28.125,-9.375 0,-3.305 -10.678,-9.375 -28.125,-9.375" /><path
     style="fill:#fff27d"
     inkscape:connector-curvature="0"
     id="path106"
     d="m 182.813,124.625 c 18.123,0 32.813,6.294 32.813,14.063 0,7.769 -14.689,14.063 -32.813,14.063 -18.124,0 -32.813,-6.295 -32.813,-14.063 0,-7.768 14.689,-14.063 32.813,-14.063" /><path
     style="fill:#014463;fill-opacity:1"
     inkscape:connector-curvature="0"
     id="path108"
     d="m 182.813,157.438 c -18.636,0 -37.5,-6.44 -37.5,-18.75 0,-12.31 18.864,-18.75 37.5,-18.75 18.636,0 37.5,6.44 37.5,18.75 0,12.31 -18.865,18.75 -37.5,18.75 m 0,-28.125 c -17.445,0 -28.125,6.07 -28.125,9.375 0,3.305 10.68,9.375 28.125,9.375 17.445,0 28.125,-6.07 28.125,-9.375 0,-3.305 -10.68,-9.375 -28.125,-9.375" /><path
     style="fill:#e0a13b"
     inkscape:connector-curvature="0"
     id="path110"
     d="m 215.625,194.938 0,18.75 c 0,7.769 14.689,14.063 32.813,14.063 18.124,0 32.813,-6.294 32.813,-14.063 l 0,-18.75" /><path
     style="fill:#fff27d"
     inkscape:connector-curvature="0"
     id="path112"
     d="m 248.438,209 c -18.123,0 -32.813,-6.294 -32.813,-14.063 l 0,18.75 c 0,6.646 10.775,12.204 25.246,13.674 l 8.35,0 0,-18.38 c -0.262,0.005 -0.523,0.019 -0.783,0.019" /><path
     style="fill:#014463;fill-opacity:1"
     inkscape:connector-curvature="0"
     id="path114"
     d="m 182.813,251.188 c -18.636,0 -37.5,-6.44 -37.5,-18.75 l 0,-18.75 c 0,-2.591 2.101,-4.688 4.688,-4.688 2.586,0 4.688,2.097 4.688,4.688 l 0,18.75 c 0,3.305 10.68,9.375 28.125,9.375 17.445,0 28.125,-6.07 28.125,-9.375 l 0,-18.75 c 0,-2.591 2.102,-4.688 4.688,-4.688 2.586,0 4.688,2.097 4.688,4.688 l 0,18.75 c -0.002,12.309 -18.867,18.75 -37.502,18.75" /><path
     style="fill:#014463;fill-opacity:1"
     inkscape:connector-curvature="0"
     id="path116"
     d="m 182.813,232.438 c -18.636,0 -37.5,-6.44 -37.5,-18.75 l 0,-18.75 c 0,-2.591 2.101,-4.688 4.688,-4.688 2.586,0 4.688,2.097 4.688,4.688 l 0,18.75 c 0,3.305 10.68,9.375 28.125,9.375 17.445,0 28.125,-6.07 28.125,-9.375 l 0,-18.75 c 0,-2.591 2.102,-4.688 4.688,-4.688 2.586,0 4.688,2.097 4.688,4.688 l 0,18.75 c -0.002,12.309 -18.867,18.75 -37.502,18.75" /><path
     style="fill:#014463;fill-opacity:1"
     inkscape:connector-curvature="0"
     id="path118"
     d="m 182.813,213.688 c -18.636,0 -37.5,-6.44 -37.5,-18.75 l 0,-18.75 c 0,-2.591 2.101,-4.688 4.688,-4.688 2.586,0 4.688,2.097 4.688,4.688 l 0,18.75 c 0,3.305 10.68,9.375 28.125,9.375 17.445,0 28.125,-6.07 28.125,-9.375 l 0,-18.75 c 0,-2.591 2.102,-4.688 4.688,-4.688 2.586,0 4.688,2.097 4.688,4.688 l 0,18.75 c -0.002,12.309 -18.867,18.75 -37.502,18.75" /><path
     style="fill:#014463;fill-opacity:1"
     inkscape:connector-curvature="0"
     id="path120"
     d="m 182.813,194.938 c -18.636,0 -37.5,-6.44 -37.5,-18.75 l 0,-18.75 c 0,-2.591 2.101,-4.688 4.688,-4.688 2.586,0 4.688,2.097 4.688,4.688 l 0,18.75 c 0,3.305 10.68,9.375 28.125,9.375 17.445,0 28.125,-6.07 28.125,-9.375 l 0,-18.75 c 0,-2.591 2.102,-4.688 4.688,-4.688 2.586,0 4.688,2.097 4.688,4.688 l 0,18.75 c -0.002,12.309 -18.867,18.75 -37.502,18.75" /><path
     style="fill:#014463;fill-opacity:1"
     inkscape:connector-curvature="0"
     id="path122"
     d="m 182.813,176.188 c -18.636,0 -37.5,-6.44 -37.5,-18.75 l 0,-18.75 c 0,-2.586 2.101,-4.688 4.688,-4.688 2.586,0 4.688,2.102 4.688,4.688 l 0,18.75 c 0,3.305 10.68,9.375 28.125,9.375 17.445,0 28.125,-6.07 28.125,-9.375 l 0,-18.75 c 0,-2.586 2.102,-4.688 4.688,-4.688 2.586,0 4.688,2.102 4.688,4.688 l 0,18.75 c -0.002,12.309 -18.867,18.75 -37.502,18.75" /><path
     style="fill:#014463;fill-opacity:1"
     inkscape:connector-curvature="0"
     id="path124"
     d="m 248.438,232.438 c -18.636,0 -37.5,-6.44 -37.5,-18.75 l 0,-18.75 c 0,-2.591 2.102,-4.688 4.688,-4.688 2.586,0 4.688,2.097 4.688,4.688 l 0,18.75 c 0,3.305 10.68,9.375 28.125,9.375 17.445,0 28.125,-6.07 28.125,-9.375 l 0,-18.75 c 0,-2.591 2.102,-4.688 4.688,-4.688 2.586,0 4.688,2.097 4.688,4.688 l 0,18.75 c -0.002,12.309 -18.867,18.75 -37.502,18.75" /><path
     style="fill:#fff27d"
     inkscape:connector-curvature="0"
     id="path126"
     d="m 248.438,180.875 c 18.123,0 32.813,6.294 32.813,14.063 0,7.769 -14.69,14.062 -32.813,14.062 -18.123,0 -32.813,-6.294 -32.813,-14.063 0,-7.769 14.689,-14.062 32.813,-14.062" /><path
     style="fill:#014463;fill-opacity:1"
     inkscape:connector-curvature="0"
     id="path128"
     d="m 248.438,213.688 c -18.636,0 -37.5,-6.44 -37.5,-18.75 0,-12.31 18.864,-18.75 37.5,-18.75 18.636,0 37.5,6.44 37.5,18.75 0,12.31 -18.865,18.75 -37.5,18.75 m 0,-28.125 c -17.445,0 -28.125,6.07 -28.125,9.375 0,3.305 10.68,9.375 28.125,9.375 17.445,0 28.125,-6.07 28.125,-9.375 0,-3.305 -10.68,-9.375 -28.125,-9.375" /><path
     style="fill:#89dbba"
     inkscape:connector-curvature="0"
     id="path130"
     d="m 65.625,77.75 c 5.175,0 9.375,4.2 9.375,9.375 0,5.175 -4.2,9.375 -9.375,9.375 -5.175,0 -9.375,-4.2 -9.375,-9.375 0,-5.175 4.2,-9.375 9.375,-9.375" /><path
     style="fill:#014463;fill-opacity:1"
     inkscape:connector-curvature="0"
     id="path132"
     d="m 65.625,101.188 c -7.769,0 -14.063,-6.294 -14.063,-14.063 0,-7.769 6.294,-14.063 14.063,-14.063 7.769,0 14.063,6.294 14.063,14.063 -0.01,7.761 -6.302,14.053 -14.063,14.063 m 0,-18.75 c -2.586,0 -4.688,2.101 -4.688,4.688 0,2.587 2.101,4.688 4.688,4.688 2.587,0 4.688,-2.101 4.688,-4.688 0,-2.587 -2.102,-4.688 -4.688,-4.688" /><path
     style="fill:#014463;fill-opacity:1"
     inkscape:connector-curvature="0"
     id="path134"
     d="m 122.349,138.88 c -1.128,0 -2.225,-0.412 -3.078,-1.153 -3.159,-2.747 -5.981,-5.867 -8.405,-9.284 -1.396,-1.964 -1.069,-4.674 0.755,-6.253 5.244,-4.879 11.563,-8.445 18.443,-10.425 -0.009,-0.801 -0.009,-1.621 -0.005,-2.456 -0.313,-1.119 -0.778,-2.193 -1.378,-3.186 -1.396,-2.369 -2.339,-4.969 -2.788,-7.679 -1.341,-2.804 -2.092,-5.841 -2.208,-8.945 -0.019,-1.321 0.224,-2.634 0.723,-3.861 -0.076,-0.433 -0.151,-0.872 -0.222,-1.314 l -0.426,-2.465 c -2.085,-7.64 1.477,-15.699 8.535,-19.299 0.009,-0.256 0.021,-0.524 0.034,-0.792 0.131,-2.609 0.305,-5.859 3.491,-7.116 1.856,-0.627 3.905,-0.19 5.344,1.14 3.521,2.115 7.397,3.578 11.435,4.326 1.396,0.357 2.514,0.647 3.168,0.881 8.711,2.838 13.619,12.058 11.097,20.865 l -0.426,2.46 c -0.073,0.442 -0.146,0.881 -0.22,1.314 0.499,1.227 0.736,2.541 0.719,3.861 -0.119,3.104 -0.865,6.141 -2.207,8.94 -0.457,2.765 -1.419,5.427 -2.828,7.851 -0.563,0.961 -1.012,1.989 -1.337,3.051 l -0.005,0.478 c -0.041,2.607 -2.119,4.731 -4.729,4.816 -2.495,0.073 -4.573,-1.891 -4.651,-4.383 0,-0.034 0,-0.066 0,-0.098 l 0.005,-0.492 c 0.138,-2.714 0.957,-5.349 2.381,-7.665 0.942,-1.531 1.584,-3.23 1.886,-5.001 0.032,-0.631 0.188,-1.252 0.462,-1.824 0.925,-1.758 1.488,-3.687 1.648,-5.671 0,-0.05 0.004,-0.08 0.018,-0.084 -0.814,-1.053 -1.144,-2.413 -0.893,-3.727 0.174,-0.94 0.339,-1.916 0.509,-2.916 l 0.439,-2.568 c 1.291,-7.157 -1.996,-9.304 -5.004,-10.369 -0.476,-0.174 -1.305,-0.371 -2.339,-0.634 -3.095,-0.73 -6.141,-1.659 -9.119,-2.778 -0.371,1.632 -1.49,2.996 -3.019,3.68 -4.129,1.195 -6.509,5.511 -5.314,9.641 0.046,0.156 0.094,0.311 0.148,0.46 l 0.442,2.568 c 0.169,1 0.332,1.976 0.506,2.916 0.245,1.296 -0.066,2.625 -0.854,3.681 0.132,2.025 0.684,4.003 1.627,5.802 0.277,0.572 0.43,1.193 0.464,1.824 0.282,1.696 0.899,3.328 1.817,4.786 1.421,2.277 2.261,4.866 2.442,7.542 -0.004,1.407 -0.004,2.737 0.048,3.998 0.13,3.56 -2.38,6.661 -5.887,7.276 -4.521,0.984 -8.752,2.989 -12.367,5.873 1.302,1.485 2.71,2.886 4.2,4.191 1.955,1.701 2.156,4.663 0.455,6.613 -0.886,1.018 -2.177,1.604 -3.532,1.604 m 35.621,-49.02 0.005,0.004 -0.005,-0.004 z m -23.653,-28.313 -0.014,0.004 0.014,-0.004 z" /></svg>